<svg xmlns="http://www.w3.org/2000/svg" width="64" height="64" fill="none" viewBox="0 0 64 64">
  <g clip-path="url(#a)">
    <path fill="#FF575B" d="M32 64c17.673 0 32-14.327 32-32C64 14.327 49.673 0 32 0 14.327 0 0 14.327 0 32c0 17.673 14.327 32 32 32Z"/>
    <path fill="#fff" d="M46.293 33.705h-4.48v-3.2h4.48v-4.48h3.2v4.48h4.499v3.177l-4.499.038v4.252h-3.2v-4.267Zm-29.44-10.003-2.104-.13 2.135-3.52h4.023v24.96h-4.054v-21.31ZM30.535 45.21c-2.21-.433-4.36-2.093-5.366-4.143-.45-.915-.524-1.369-.527-3.2-.002-1.728.083-2.315.448-3.093.473-1.007 1.125-1.796 1.98-2.392l.509-.356-.872-.99c-1.189-1.35-1.612-2.709-1.486-4.768.235-3.824 2.855-6.37 6.793-6.597 3.054-.177 5.492 1.088 6.89 3.574.567 1.01.665 1.422.739 3.114.099 2.264-.238 3.293-1.553 4.75l-.785.868.861.777c2.926 2.644 2.785 8.03-.28 10.721-1.895 1.664-4.54 2.288-7.351 1.736Zm4.074-4.166c2.26-1.597 2.322-4.896.12-6.49-2.06-1.493-4.897-.731-5.955 1.598-1.64 3.613 2.606 7.173 5.835 4.892Zm-.206-11.29c.927-.63 1.652-1.917 1.646-2.918-.007-1.016-.694-2.376-1.484-2.938-.732-.521-2.19-.784-3.091-.558-.303.076-.932.482-1.397.902-1.398 1.263-1.592 2.932-.532 4.575.98 1.52 3.332 1.973 4.858.936Z"/>
  </g>
  <defs>
    <clipPath id="a">
      <path fill="#fff" d="M0 0h64v64H0z"/>
    </clipPath>
  </defs>
</svg>
