<svg xmlns="http://www.w3.org/2000/svg" width="152" height="64" fill="none" viewBox="0 0 152 64">
  <g clip-path="url(#a)">
    <path fill="#000" d="M0 32.387C0 25.48 3.012 22 7.763 22c3.289 0 5.775 1.602 6.464 5.222l.111.581-2.818.608-.11-.524c-.526-2.431-1.879-3.37-3.702-3.37-2.57 0-4.614 2.238-4.614 7.68 0 5.137 1.852 7.292 4.448 7.292 1.852 0 4.007-.966 4.007-4.365v-.579H7.487v-2.404h6.88v9.531h-2.46l-.166-2.349c-.912 1.905-2.707 2.68-4.806 2.68C2.735 42 0 38.659 0 32.388Zm24.972 7.956c-.857.91-1.989 1.63-3.812 1.657-2.596 0-4.282-1.74-4.282-3.977 0-2.431 2.017-3.62 3.785-4.117l4.283-1.216v-.497c0-1.547-.968-2.32-2.487-2.32-1.41 0-2.54.883-3.038 1.878l-.084.166-2.183-1.16.139-.277c.608-1.244 2.294-2.957 5.414-2.957 3.12 0 5.112 1.576 5.112 4.42v7.266c0 .69.028 1.603.165 2.21l.056.25h-2.873l-.029-.14a7.957 7.957 0 0 1-.166-1.186Zm-3.067-.526c1.27 0 2.404-.747 3.039-1.547v-3.48l-2.984.912c-1.131.358-2.128.94-2.128 2.128 0 1.189.802 1.99 2.073 1.99v-.003Zm22.597-9.807c-1.132 0-2.32.773-2.984 1.436v10.221h-2.873v-9.531c0-1.41-.718-2.128-2.099-2.128-1.132 0-2.32.773-2.983 1.436v10.221H30.69v-13.81h2.735v1.52c1.05-1.105 2.542-1.852 4.089-1.852 1.933 0 3.094.884 3.646 2.1 1.05-1.244 2.652-2.1 4.31-2.1 2.846 0 4.006 1.907 4.006 3.978v10.166h-2.873v-9.531c0-1.41-.718-2.128-2.1-2.128l-.001.002ZM55.36 40.398l-.277 1.271h-2.431V22.332h2.873v6.658c.829-.939 2.1-1.465 3.425-1.465 3.15 0 5.278 2.35 5.278 7.046s-2.24 7.431-5.388 7.431c-1.41 0-2.707-.58-3.48-1.602v-.002Zm2.927-.718c1.631 0 3.012-1.492 3.012-5.027 0-3.536-1.436-4.78-3.067-4.78-1.105 0-2.017.552-2.707 1.27v7.211c.718.747 1.657 1.326 2.762 1.326Zm8.314-17.348h2.873v19.337h-2.873V22.332Zm5.415 12.623c0-4.364 2.183-7.432 5.995-7.432 2.68 0 5.496 1.603 5.496 6.575v1.297h-8.674v.166c0 2.68 1.41 4.172 3.287 4.172 1.215 0 2.238-.497 2.928-1.74l.166-.306 2.265.968-.137.276C82.319 40.975 80.495 42 78.038 42c-3.48 0-6.022-2.46-6.022-7.046v.002ZM80.8 33.49v-.194c0-2.515-1.326-3.454-2.789-3.454s-2.901 1.105-3.15 3.646h5.941l-.002.002Z"/>
    <path fill="#EF681C" d="M91.132 22.332h4.172l5.469 19.337h-3.067l-1.354-5.083h-6.41l-1.354 5.083h-2.901l5.445-19.337Zm4.559 11.879-2.542-9.503-2.541 9.503h5.083Zm4.362-6.356h2.873l2.265 9.863 2.515-9.863h2.707l2.46 9.863 2.349-9.863h2.625l-3.564 13.813h-2.847l-2.486-9.835-2.514 9.835h-2.818l-3.565-13.813Zm26.272 12.488c-.857.91-1.989 1.63-3.812 1.657-2.597 0-4.283-1.74-4.283-3.977 0-2.431 2.016-3.62 3.786-4.117l4.282-1.216v-.497c0-1.547-.967-2.32-2.486-2.32-1.408 0-2.541.883-3.039 1.878l-.081.166-2.184-1.16.139-.277c.608-1.244 2.294-2.957 5.415-2.957 3.12 0 5.111 1.576 5.111 4.42v7.266c0 .69.029 1.603.166 2.21l.055.25h-2.873l-.028-.14a8.383 8.383 0 0 1-.166-1.186h-.002Zm-3.065-.526c1.27 0 2.404-.747 3.038-1.547v-3.48l-2.983.912c-1.134.358-2.128.94-2.128 2.128 0 1.189.802 1.99 2.073 1.99v-.003Zm8.7-11.962h2.681v2.596c1.823-2.128 3.454-2.762 4.835-2.79v2.68c-1.934 0-3.454 1.078-4.641 2.154v9.172h-2.873V27.854h-.002Zm7.817 7.1c0-4.364 2.183-7.432 5.995-7.432 2.681 0 5.499 1.603 5.499 6.575v1.297h-8.674v.166c0 2.68 1.409 4.172 3.288 4.172 1.215 0 2.238-.497 2.928-1.74l.166-.306 2.265.968-.137.276c-1.023 2.044-2.846 3.068-5.304 3.068-3.481 0-6.022-2.46-6.022-7.046l-.004.002Zm8.785-1.465v-.194c0-2.515-1.326-3.454-2.791-3.454-1.465 0-2.902 1.105-3.15 3.646h5.941v.002Z"/>
  </g>
  <defs>
    <clipPath id="a">
      <path fill="#fff" d="M0 0h151.269v64H0z"/>
    </clipPath>
  </defs>
</svg>
