<svg xmlns="http://www.w3.org/2000/svg" width="148" height="64" fill="none" viewBox="0 0 148 64">
  <g clip-path="url(#a)">
    <mask id="b" width="148" height="42" x="0" y="11" maskUnits="userSpaceOnUse" style="mask-type:luminance">
      <path fill="#fff" d="M.5 11h146.996v42H.5V11Z"/>
    </mask>
    <g mask="url(#b)">
      <path fill="#000" d="M56.822 21.744a.484.484 0 0 1-.305.256l-2.782.825c-.34.099-.517 0-.657-.34a2.868 2.868 0 0 0-3.07-2.194c-2.62 0-3.516 1.552-3.516 3.64v4.806c0 2.09.884 3.64 3.516 3.64 2.165 0 3.273-1.007 3.273-3.201v-.656h-2.828a.36.36 0 0 1-.387-.413v-2.604a.366.366 0 0 1 .387-.413h6.3a.358.358 0 0 1 .413.387v3.971c0 3.797-2.79 6.658-7.124 6.658-5.14 0-7.542-3.044-7.542-7.201v-5.078c0-4.184 2.402-7.202 7.542-7.202 4.157 0 6.038 2.37 6.79 4.747m14.142 4.725v9.318a.368.368 0 0 1-.387.387h-2.841a.372.372 0 0 1-.413-.387V33.89a4.484 4.484 0 0 1-3.928 2.193c-2.684 0-4.42-1.729-4.42-4.387 0-2.657 1.63-4.134 5.605-4.412a16.958 16.958 0 0 1 2.58 0v-1.06c0-1.395-.722-1.965-1.965-1.965a1.772 1.772 0 0 0-1.964 1.313c-.131.307-.229.36-.517.281l-2.841-.722c-.282-.078-.308-.235-.256-.438.387-2.043 2.325-3.544 5.73-3.544 3.587 0 5.604 1.706 5.604 4.91m-3.797 4.878v-1.303a16.064 16.064 0 0 0-2.272.08c-1.44.176-2.22.615-2.22 1.728 0 1.001.657 1.545 1.781 1.545a2.756 2.756 0 0 0 2.71-2.01m14.064-9.788a3.609 3.609 0 0 1 3.535 2.615c1.06-1.551 2.35-2.619 4.158-2.619 2.5 0 3.928 1.964 3.928 4.956v9.274a.42.42 0 0 1-.465.387h-2.965a.417.417 0 0 1-.465-.387V26.82c0-1.313-.57-2.07-1.575-2.07s-1.833.884-2.22 2.226v8.44a.36.36 0 0 1-.36.386h-3.212c-.229 0-.334-.157-.334-.386v-8.597c0-1.313-.57-2.07-1.575-2.07s-1.86.93-2.22 2.253v8.413a.354.354 0 0 1-.386.387h-3.15a.354.354 0 0 1-.387-.387V21.862a.36.36 0 0 1 .387-.36h3.019a.354.354 0 0 1 .386.36v1.624a4.833 4.833 0 0 1 3.929-2.297m27.832.315c.079.334 0 .59-.334.656l-2.737.799a.43.43 0 0 1-.615-.335c-.394-1.312-1.061-2.324-2.972-2.324-2.351 0-3.097 1.551-3.097 3.64v4.806c0 2.089.853 3.64 3.097 3.64 2.016 0 2.789-1.14 3.096-2.56a.425.425 0 0 1 .622-.333l2.744.89a.503.503 0 0 1 .334.657c-.657 2.789-2.659 5.053-6.842 5.053-4.695 0-7.072-3.045-7.072-7.202v-5.064c0-4.184 2.423-7.202 7.072-7.202 4.078 0 5.99 2.166 6.71 4.904m13.732 4.572v9.319a.366.366 0 0 1-.387.386h-2.841a.375.375 0 0 1-.386-.23.382.382 0 0 1-.027-.156v-1.53a4.493 4.493 0 0 1-3.928 2.193c-2.684 0-4.413-1.729-4.413-4.387 0-2.657 1.624-4.134 5.598-4.412a17.015 17.015 0 0 1 2.586 0v-1.06c0-1.395-.726-1.965-1.964-1.965a1.788 1.788 0 0 0-1.964 1.313c-.125.307-.229.36-.517.281l-2.835-.722c-.288-.078-.315-.235-.263-.438.387-2.043 2.325-3.544 5.735-3.544 3.588 0 5.598 1.706 5.598 4.91m-3.791 4.878v-1.303a16.01 16.01 0 0 0-2.272.08c-1.443.176-2.219.615-2.219 1.728 0 1.001.656 1.545 1.781 1.545a2.765 2.765 0 0 0 2.71-2.01m14.856-9.219v2.763c0 .334-.131.465-.465.465h-.418c-2.063 0-3.274.93-3.687 2.48v7.95a.356.356 0 0 1-.34.386h-3.274a.368.368 0 0 1-.251-.122.351.351 0 0 1-.071-.123.34.34 0 0 1-.018-.142V21.863a.35.35 0 0 1 .11-.27.345.345 0 0 1 .276-.09h2.946c.308 0 .387.202.387.412v1.912a4.486 4.486 0 0 1 4.183-2.528c.518 0 .657.08.657.439m5.034 8.072v.543c0 1.5.779 2.554 2.62 2.554 1.84 0 2.271-.657 2.736-1.52.229-.386.334-.438.746-.262l2.035 1.034c.419.21.445.413.262.799-.877 1.964-3.07 3.123-5.807 3.123-4.134 0-6.3-2.449-6.3-5.807v-3.272c0-3.273 2.034-5.813 6.272-5.813 4.027 0 5.991 2.559 5.991 5.735v2.272c0 .387-.131.656-.656.656l-7.899-.042Zm0-3.019v.491h4.983v-.49a2.285 2.285 0 0 0-.656-1.822 2.272 2.272 0 0 0-1.819-.66 2.302 2.302 0 0 0-2.371 1.495 2.301 2.301 0 0 0-.137.986ZM18.354 11H1.03a.524.524 0 0 0-.53.525v25.194a16.283 16.283 0 0 0 16.283 16.274h1.57A16.275 16.275 0 0 0 34.63 36.718v-9.442a16.275 16.275 0 0 0-16.275-16.275M29.4 36.992c0 6.128-4.498 10.757-11.503 10.757-8.295 0-12.172-4.922-12.172-11.64v-8.204c0-6.76 3.876-11.673 12.159-11.673 6.71 0 9.755 3.836 10.966 7.673a.778.778 0 0 1-.491 1.073l-4.505 1.313c-.537.163-.831 0-.995-.544-.713-2.291-2.213-3.544-4.962-3.544-4.256 0-5.67 2.502-5.67 5.893v7.77c0 3.378 1.414 5.892 5.67 5.892 3.502 0 5.336-1.63 5.336-5.172V35.57h-4.695a.582.582 0 0 1-.656-.656v-4.3a.609.609 0 0 1 .656-.656h10.194a.582.582 0 0 1 .656.622l.012 6.411Zm16.943 4.379a.098.098 0 0 1 .005.087.1.1 0 0 1-.064.057l-.46.144c-.072 0-.111 0-.143-.06a1.116 1.116 0 0 0-1.172-.83 1.166 1.166 0 0 0-1.313 1.312v1.735a1.165 1.165 0 0 0 1.313 1.312c.74 0 1.224-.34 1.224-1.106v-.657H44.66c-.059 0-.092 0-.092-.098v-.364c0-.065 0-.098.092-.098h1.663a.092.092 0 0 1 .105.099v1.204a1.735 1.735 0 0 1-1.918 1.742 1.807 1.807 0 0 1-2.01-1.965v-1.837a1.806 1.806 0 0 1 2.01-1.964 1.76 1.76 0 0 1 1.833 1.27m3.535 3.13v-.657a7.36 7.36 0 0 0-.93 0c-.576.066-.923.268-.923.746a.656.656 0 0 0 .775.694 1.153 1.153 0 0 0 1.079-.782m.656-1.676v2.861c0 .06 0 .086-.099.086h-.459c-.066 0-.098 0-.098-.086v-.543a1.427 1.427 0 0 1-1.225.7 1.192 1.192 0 0 1-1.312-1.224c0-.766.517-1.185 1.525-1.263a7.18 7.18 0 0 1 .989 0v-.482c0-.55-.321-.78-.838-.78a.746.746 0 0 0-.845.55c0 .073-.053.08-.131.066l-.445-.125c-.072 0-.092-.052-.072-.111.137-.576.656-.95 1.509-.95.853 0 1.493.42 1.493 1.313m3.011-1.322a1.015 1.015 0 0 1 1.002.752 1.461 1.461 0 0 1 1.218-.752 1.131 1.131 0 0 1 1.114 1.273v2.888c0 .065-.04.092-.105.092h-.452c-.072 0-.105 0-.105-.092v-2.756c0-.511-.229-.788-.656-.788a1.068 1.068 0 0 0-.91.788v2.769c0 .066 0 .092-.092.092h-.502c-.072 0-.092 0-.092-.092v-2.77c0-.51-.223-.787-.656-.787a1.115 1.115 0 0 0-.91.788v2.736c0 .066 0 .092-.093.092h-.497c-.072 0-.092 0-.092-.092v-3.98c0-.053 0-.086.092-.086h.484c.073 0 .092.033.092.085v.55a1.415 1.415 0 0 1 1.166-.713m5.198 1.696v.969a.988.988 0 0 0 1.04 1.054c.603 0 .964-.354.964-1.054v-.976c0-.694-.36-1.067-.963-1.067a1.001 1.001 0 0 0-1.021 1.074m0-3.13v2.089a1.38 1.38 0 0 1 1.23-.656 1.427 1.427 0 0 1 1.441 1.59v1.16a1.427 1.427 0 0 1-1.466 1.583 1.378 1.378 0 0 1-1.218-.656v.485c0 .059-.046.078-.092.078h-.485c-.059 0-.092 0-.092-.078v-5.595a.08.08 0 0 1 .086-.085h.517c.059 0 .079 0 .079.085Zm4.425 0v5.598c0 .065 0 .092-.091.092h-.498c-.079 0-.098 0-.098-.092v-5.598c0-.06 0-.092.098-.092h.498a.078.078 0 0 1 .07.022.08.08 0 0 1 .021.07Zm1.835 1.601v4.003c0 .06 0 .086-.085.086h-.498c-.078 0-.098 0-.098-.086v-4.003c0-.059 0-.085.099-.085h.497c.066 0 .085 0 .085.085Zm0-1.575v.733c0 .072 0 .112-.111.112h-.46a.099.099 0 0 1-.111-.112v-.733a.098.098 0 0 1 .066-.107.097.097 0 0 1 .045-.004h.46c.085 0 .111.039.111.111Zm1.866 2.848v2.73c0 .06 0 .086-.085.086h-.471c-.08 0-.099 0-.099-.086V41.66c0-.052 0-.085.092-.085h.484c.072 0 .092.033.092.085v.55a1.591 1.591 0 0 1 1.313-.713 1.205 1.205 0 0 1 1.224 1.378v2.792c0 .06 0 .086-.098.086h-.498c-.065 0-.098 0-.098-.086v-2.684c0-.536-.242-.853-.766-.853a1.191 1.191 0 0 0-1.054.805M71.05 43a.837.837 0 0 0 .936.904.8.8 0 0 0 .897-.884.92.92 0 1 0-1.833 0m2.193 3.142c0-.3-.17-.582-.787-.582h-.766c-.576 0-.753.294-.753.596 0 .418.328.694 1.133.694.805 0 1.172-.288 1.172-.707m.656-.046c0 .656-.51 1.251-1.865 1.251-1.251 0-1.742-.471-1.742-1.126a.97.97 0 0 1 .656-.904.693.693 0 0 1-.294-.53.657.657 0 0 1 .425-.59 1.313 1.313 0 0 1-.656-1.192 1.377 1.377 0 0 1 1.557-1.434h1.825c.052 0 .079.032.079.092v.373c0 .072-.04.098-.092.098h-.727a1.173 1.173 0 0 1 .425.963c0 .773-.517 1.313-1.509 1.313h-.342c-.288 0-.412.13-.412.288 0 .157.13.288.412.288h.897c.985 0 1.369.49 1.369 1.1m6.246-4.845a.085.085 0 0 1-.032.112.086.086 0 0 1-.04.012l-.426.164a.107.107 0 0 1-.083-.003.106.106 0 0 1-.054-.063 1.06 1.06 0 0 0-1.08-.733c-.657 0-1.028.308-1.028.812s.275.656 1.312 1.073c1.038.418 1.48.865 1.48 1.641a1.61 1.61 0 0 1-1.8 1.558 1.715 1.715 0 0 1-1.834-1.27c0-.079 0-.111.066-.137l.445-.144c.085 0 .118 0 .138.079a1.093 1.093 0 0 0 1.185.825c.656 0 1.08-.328 1.08-.858s-.249-.722-1.198-1.087c-1.14-.451-1.571-.897-1.571-1.669a1.543 1.543 0 0 1 1.735-1.473 1.689 1.689 0 0 1 1.722 1.159m1.04 3.202v-2.799c0-.059.034-.092.1-.092h.497c.065 0 .098.033.098.092v2.678c0 .543.242.857.76.857a1.181 1.181 0 0 0 1.053-.811v-2.724c0-.059 0-.092.099-.092h.49c.08 0 .099.033.099.092v3.997c0 .059 0 .092-.092.092h-.484a.08.08 0 0 1-.07-.022.079.079 0 0 1-.022-.07v-.544a1.576 1.576 0 0 1-1.313.722 1.212 1.212 0 0 1-1.224-1.378m7.043-.303v-.998a.911.911 0 0 0-.962-1.05.988.988 0 0 0-1.015 1.054v.984a.995.995 0 0 0 1.021 1.067c.603 0 .963-.367.963-1.06m-2.58 3.123a.078.078 0 0 1-.062-.023.078.078 0 0 1-.023-.063V41.66c0-.059.033-.085.092-.085h.484a.08.08 0 0 1 .067.02.079.079 0 0 1 .025.065v.471a1.407 1.407 0 0 1 1.218-.656 1.428 1.428 0 0 1 1.467 1.575v1.174a1.434 1.434 0 0 1-1.44 1.59 1.348 1.348 0 0 1-1.225-.656v2.004a.078.078 0 0 1-.023.062.078.078 0 0 1-.063.023l-.517.03Zm7.01-3.12v-.998a.91.91 0 0 0-.962-1.05.988.988 0 0 0-1.015 1.054v.984a.995.995 0 0 0 1.015 1.067c.602 0 .962-.367.962-1.06m-2.58 3.123a.078.078 0 0 1-.062-.023.078.078 0 0 1-.023-.063V41.66c0-.059.033-.085.092-.085h.484a.079.079 0 0 1 .092.085v.471a1.407 1.407 0 0 1 1.218-.656 1.426 1.426 0 0 1 1.474 1.575v1.174a1.436 1.436 0 0 1-1.444 1.59 1.361 1.361 0 0 1-1.225-.656v2.004a.078.078 0 0 1-.023.062.078.078 0 0 1-.062.023l-.52.03Zm4.937-4.125v1.06a1.002 1.002 0 1 0 2.003 0v-1.06a1.002 1.002 0 0 0-2.003 0Zm2.69-.033v1.094a1.69 1.69 0 0 1-3.378 0v-1.074a1.69 1.69 0 0 1 3.379 0m3.136-1.545v.463c0 .072 0 .098-.105.098h-.086a1.212 1.212 0 0 0-1.191.832v2.66c0 .059-.04.078-.086.078h-.517a.072.072 0 0 1-.079-.078v-3.988c0-.065 0-.085.092-.085h.472c.065 0 .098.033.098.092v.656a1.4 1.4 0 0 1 1.312-.779c.099 0 .125 0 .125.099m1.964-1.05v1.001h.891c.065 0 .092.033.092.105v.373c0 .073 0 .099-.092.099h-.891v2.416c0 .373.203.543.583.543h.301c.066 0 .099 0 .099.092v.425c0 .072 0 .098-.099.098h-.399a1.017 1.017 0 0 1-1.086-.62 1.001 1.001 0 0 1-.073-.44v-2.508h-.57c-.052 0-.085 0-.085-.098v-.373c0-.073.033-.105.085-.105h.576v-1.008c0-.052 0-.085.099-.085h.471c.079 0 .098 0 .098.085Zm7.503.714c0 .078 0 .137-.111.17l-.733.268a.142.142 0 0 1-.119.004.132.132 0 0 1-.049-.036.126.126 0 0 1-.029-.053.803.803 0 0 0-.832-.517c-.451 0-.746.215-.746.543 0 .327.229.465 1.247.818 1.018.354 1.427.838 1.427 1.64 0 .964-.825 1.697-2.016 1.697a1.846 1.846 0 0 1-2.004-1.349.132.132 0 0 1-.007-.052.13.13 0 0 1 .092-.118l.793-.262c.105-.033.156 0 .183.105a.833.833 0 0 0 .936.656c.537 0 .818-.23.818-.57 0-.34-.202-.46-1.027-.746-1.185-.425-1.637-.897-1.637-1.772a1.75 1.75 0 0 1 1.228-1.541 1.75 1.75 0 0 1 .69-.07 1.822 1.822 0 0 1 1.899 1.212m2.357-.681v.943h.788a.108.108 0 0 1 .092.032.097.097 0 0 1 .027.042.107.107 0 0 1 .005.05v.688a.112.112 0 0 1-.034.089.11.11 0 0 1-.09.03h-.788v1.865c0 .242.131.38.445.38h.341c.078 0 .124.04.124.112v.777c0 .079-.046.111-.124.111h-.528c-.943 0-1.388-.497-1.388-1.23v-2.035h-.484a.113.113 0 0 1-.049-.005.113.113 0 0 1-.041-.025.114.114 0 0 1-.028-.04.112.112 0 0 1-.007-.048v-.69a.122.122 0 0 1 .005-.05.119.119 0 0 1 .027-.042.11.11 0 0 1 .093-.032h.504v-.923a.102.102 0 0 1 .028-.085.095.095 0 0 1 .038-.026.102.102 0 0 1 .045-.007h.891c.072 0 .105.046.105.118m3.941 3.68v-.394a5.522 5.522 0 0 0-.656 0c-.425.053-.656.183-.656.51 0 .328.197.46.525.46a.817.817 0 0 0 .798-.596m1.12-1.44v2.75a.112.112 0 0 1-.073.104.115.115 0 0 1-.045.007h-.838a.113.113 0 0 1-.083-.03.113.113 0 0 1-.035-.082v-.451a1.317 1.317 0 0 1-1.159.656 1.221 1.221 0 0 1-1.242-.794 1.22 1.22 0 0 1-.071-.518c0-.766.485-1.218 1.657-1.313.252-.023.506-.023.759 0v-.297a.508.508 0 0 0-.145-.43.503.503 0 0 0-.431-.14.53.53 0 0 0-.583.387c-.039.092-.066.112-.15.086l-.838-.21c-.086 0-.092-.072-.073-.13.112-.603.657-1.042 1.683-1.042s1.656.498 1.656 1.44m3.418-1.269v.818c0 .099-.039.132-.137.132h-.125a.994.994 0 0 0-1.086.733v2.342a.101.101 0 0 1-.024.078.099.099 0 0 1-.075.033h-.956a.099.099 0 0 1-.095-.069.098.098 0 0 1-.003-.042v-3.993a.09.09 0 0 1 .006-.044.103.103 0 0 1 .024-.036.103.103 0 0 1 .038-.022.097.097 0 0 1 .043-.003h.871a.106.106 0 0 1 .084.032c.01.011.018.025.023.04.005.014.007.03.005.046v.609a1.309 1.309 0 0 1 1.224-.74c.15 0 .183 0 .183.131m2.239-.988v.943h.788a.111.111 0 0 1 .113.076.116.116 0 0 1 .005.049v.687a.097.097 0 0 1-.005.048.096.096 0 0 1-.025.04.101.101 0 0 1-.088.03h-.788v1.866c0 .242.132.38.439.38h.347a.106.106 0 0 1 .046.005.098.098 0 0 1 .039.023.103.103 0 0 1 .033.084v.777c0 .079-.046.111-.118.111h-.53c-.943 0-1.382-.497-1.382-1.23v-2.035h-.491a.102.102 0 0 1-.047-.005.098.098 0 0 1-.041-.025.107.107 0 0 1-.03-.088v-.69a.114.114 0 0 1 .03-.09.11.11 0 0 1 .088-.034h.504v-.923a.11.11 0 0 1 .03-.088.113.113 0 0 1 .041-.025.101.101 0 0 1 .047-.005h.891a.09.09 0 0 1 .043.01.103.103 0 0 1 .058.064c.005.014.006.03.004.044m4.976 1.827c0 .065 0 .124-.092.15l-.7.249c-.079 0-.119 0-.151-.086a.696.696 0 0 0-.722-.451c-.36 0-.569.138-.569.347 0 .21.15.288.956.504.936.249 1.312.656 1.312 1.313 0 .811-.656 1.312-1.702 1.312-1.046 0-1.597-.373-1.814-1.015 0-.092 0-.137.112-.183l.615-.3c.092-.047.144 0 .19.091a.84.84 0 0 0 .853.517c.425 0 .656-.138.656-.367 0-.229-.235-.34-.988-.55-.923-.242-1.312-.656-1.312-1.312 0-.799.656-1.313 1.636-1.313a1.658 1.658 0 0 1 1.703 1.028m7.071-2.127v5.342c0 .066 0 .111-.118.111h-.93a.108.108 0 0 1-.044-.006.108.108 0 0 1-.065-.06.112.112 0 0 1-.009-.045v-2.109h-1.918v2.122a.101.101 0 0 1-.007.046.1.1 0 0 1-.026.038.099.099 0 0 1-.039.023.108.108 0 0 1-.046.005h-.956a.113.113 0 0 1-.118-.112v-5.355a.12.12 0 0 1 .009-.046.118.118 0 0 1 .028-.038.111.111 0 0 1 .087-.028h.95a.106.106 0 0 1 .046.005.1.1 0 0 1 .039.023.102.102 0 0 1 .033.084v2.121h1.918v-2.12a.112.112 0 0 1 .035-.082.106.106 0 0 1 .039-.024.108.108 0 0 1 .044-.007h.95c.085 0 .118.046.118.112m2.004 2.822v.144h1.466v-.144a.74.74 0 0 0-.438-.732.738.738 0 0 0-.99.433.74.74 0 0 0-.038.299Zm0 .89v.16a.662.662 0 0 0 .455.735c.1.03.207.037.31.018a.754.754 0 0 0 .806-.445c.072-.118.105-.132.222-.079l.603.308c.124.059.131.118.078.235a1.77 1.77 0 0 1-1.715.92 1.65 1.65 0 0 1-1.866-1.707v-.983a1.643 1.643 0 0 1 1.846-1.706A1.608 1.608 0 0 1 140 43.142v.656c0 .112-.039.19-.203.19l-2.304.01Zm5.826-2.402v.818c0 .099-.032.132-.137.132h-.118a.996.996 0 0 0-1.087.733v2.342a.095.095 0 0 1-.006.041.098.098 0 0 1-.02.036.11.11 0 0 1-.073.035h-.962a.099.099 0 0 1-.099-.112v-3.993a.091.091 0 0 1 .007-.044.099.099 0 0 1 .105-.062h.871c.091 0 .111.06.111.119v.609a1.311 1.311 0 0 1 1.225-.74c.157 0 .183 0 .183.131m1.663 1.467v.144h1.468v-.144a.74.74 0 0 0-.193-.557.74.74 0 0 0-.835-.175.74.74 0 0 0-.439.732m0 .89v.16a.654.654 0 0 0 .455.735c.101.03.207.037.311.018a.757.757 0 0 0 .812-.445c.065-.118.098-.132.216-.079l.602.308c.125.059.131.118.079.235a1.772 1.772 0 0 1-1.716.92 1.645 1.645 0 0 1-1.728-1.007 1.645 1.645 0 0 1-.124-.7v-.983a1.629 1.629 0 0 1 .525-1.284 1.64 1.64 0 0 1 1.321-.422 1.61 1.61 0 0 1 1.768 1.689v.656c0 .112-.04.19-.203.19l-2.318.01Z"/>
    </g>
  </g>
  <defs>
    <clipPath id="a">
      <path fill="#fff" d="M.5 0h146.997v64H.5z"/>
    </clipPath>
  </defs>
</svg>
