<svg xmlns="http://www.w3.org/2000/svg" width="64" height="64" fill="none" viewBox="0 0 64 64">
  <path fill="url(#a)" d="M32 64c17.673 0 32-14.327 32-32C64 14.327 49.673 0 32 0 14.327 0 0 14.327 0 32c0 17.673 14.327 32 32 32Z"/>
  <path fill="#fff" d="M38.798 14.222H25.216c-6.059 0-10.98 4.92-10.98 10.98v13.581c0 6.06 4.921 10.98 10.98 10.98h13.582c6.059 0 10.98-4.92 10.98-10.98V25.201c0-6.058-4.921-10.98-10.98-10.98Zm7.012 24.576c0 3.868-3.143 7.026-7.026 7.026H25.202c-3.869 0-7.026-3.144-7.026-7.026V25.215a7.031 7.031 0 0 1 7.026-7.025h13.582c3.869 0 7.026 3.143 7.026 7.025v13.583Z"/>
  <path fill="#fff" d="M32 22.911c-5.006 0-9.088 4.082-9.088 9.088 0 5.006 4.082 9.088 9.088 9.088 5.006 0 9.088-4.082 9.088-9.088 0-5.006-4.082-9.088-9.088-9.088Zm0 14.606A5.523 5.523 0 0 1 26.482 32 5.523 5.523 0 0 1 32 26.481a5.523 5.523 0 0 1 5.518 5.518A5.524 5.524 0 0 1 32 37.517Zm9.781-13.61a1.536 1.536 0 1 0-.493-3.032 1.536 1.536 0 0 0 .493 3.032Z"/>
  <defs>
    <linearGradient id="a" x1="7.634" x2="53.11" y1="56.366" y2="10.89" gradientUnits="userSpaceOnUse">
      <stop stop-color="#FEE411"/>
      <stop offset=".052" stop-color="#FEDB16"/>
      <stop offset=".138" stop-color="#FEC125"/>
      <stop offset=".248" stop-color="#FE983D"/>
      <stop offset=".376" stop-color="#FE5F5E"/>
      <stop offset=".5" stop-color="#FE2181"/>
      <stop offset="1" stop-color="#9000DC"/>
    </linearGradient>
  </defs>
</svg>
