<svg xmlns="http://www.w3.org/2000/svg" width="184" height="64" fill="none" viewBox="0 0 184 64">
  <path fill="#58595B" d="M70.768 12.1c0-2.291-1.628-3.95-4.19-3.95h-5.216v13.477h2.05V15.96h2.563l2.834 5.668h2.382l-3.106-5.97c1.508-.391 2.683-1.627 2.683-3.557Zm-7.356 2.11V9.99h3.015c1.357 0 2.291.784 2.291 2.11 0 1.327-.934 2.11-2.291 2.11h-3.015Zm18.964 7.447h-8.593V8.181h8.623v1.839h-6.573v3.95h5.608v1.808h-5.608v4.04h6.573v1.84h-.03Zm6.421-1.748c1.749 0 2.774-.754 2.774-2.05 0-.573-.181-1.086-.543-1.387-.332-.332-.693-.453-1.477-.573l-1.598-.241c-1.085-.151-1.96-.543-2.563-1.086-.663-.633-.995-1.477-.995-2.562 0-2.352 1.719-3.95 4.493-3.95 1.778 0 3.014.453 4.19 1.538l-1.296 1.296c-.844-.784-1.81-1.055-2.925-1.055-1.597 0-2.472.904-2.472 2.11 0 .483.151.935.513 1.236.331.302.904.543 1.507.634l1.538.24c1.236.182 1.96.483 2.502.996.754.633 1.085 1.598 1.085 2.773 0 2.473-2.02 3.95-4.853 3.95-2.02 0-3.468-.482-4.764-1.779l1.357-1.357c1.055.965 2.14 1.267 3.527 1.267Zm9.587-3.558h3.075c2.623 0 4.312-1.748 4.312-4.1 0-2.352-1.689-4.1-4.312-4.1h-5.125v13.476h2.05v-5.276Zm0-6.361h2.955c1.417 0 2.382.844 2.382 2.26 0 1.418-.965 2.232-2.382 2.232h-2.955V9.99Zm14.23 11.758c1.447 0 2.623-.513 3.558-1.447 1.326-1.327 1.296-2.834 1.296-5.427 0-2.593.03-4.1-1.296-5.427-.935-.934-2.111-1.447-3.558-1.447-1.447 0-2.623.513-3.527 1.447-1.327 1.327-1.296 2.834-1.296 5.427 0 2.593-.031 4.1 1.296 5.427.904.934 2.08 1.447 3.527 1.447Zm-2.02-11.035a2.77 2.77 0 0 1 2.02-.844 2.77 2.77 0 0 1 2.02.844c.663.724.784 1.478.784 4.191s-.121 3.467-.784 4.19c-.482.513-1.206.845-2.02.845a2.77 2.77 0 0 1-2.02-.844c-.663-.724-.784-1.478-.784-4.191s.121-3.467.784-4.19Zm11.939 10.944h-2.05V8.181h1.869l6.241 9.467V8.18h2.05v13.476h-1.869l-6.241-9.496v9.496Zm16.401-7.627c1.236.18 1.959.482 2.502.995.754.633 1.085 1.597 1.085 2.773 0 2.472-2.02 3.95-4.853 3.95-2.02 0-3.468-.483-4.764-1.779l1.357-1.357c.995.995 2.05 1.297 3.437 1.297 1.748 0 2.773-.754 2.773-2.05 0-.573-.181-1.086-.542-1.387-.332-.332-.694-.453-1.478-.573l-1.597-.211c-1.086-.15-1.96-.543-2.563-1.086-.663-.633-.995-1.477-.995-2.562 0-2.352 1.688-3.95 4.492-3.95 1.779 0 3.015.453 4.191 1.538l-1.297 1.296c-.844-.784-1.809-1.055-2.924-1.055-1.598 0-2.472.905-2.472 2.11 0 .483.151.935.512 1.237.332.301.905.542 1.508.633l1.628.18Zm6.361-5.85h2.05v13.477h-2.05V8.181Zm13.084 6.543c.905-.362 1.809-1.387 1.809-2.864 0-2.261-1.567-3.678-4.07-3.678h-5.245v13.476h5.456c2.382 0 4.07-1.326 4.07-3.798 0-1.719-.995-2.714-2.02-3.136Zm-5.456-4.733h3.014c1.297 0 2.201.693 2.201 1.93 0 1.235-.904 1.929-2.201 1.929h-3.014v-3.86Zm3.195 9.828h-3.226v-4.1h3.226c1.417 0 2.201.844 2.201 2.05.03 1.176-.754 2.05-2.201 2.05Zm15.828 1.84h-8.532V8.18h2.05v11.637h6.482v1.84Zm4.372-11.668v3.95h5.607v1.808h-5.607v4.04h6.572v1.84h-8.622V8.15h8.622v1.84h-6.572ZM65.734 31.395h4.914v2.05c0 1.749-.332 2.864-1.206 3.799-1.025 1.085-2.291 1.538-3.708 1.538-1.387 0-2.623-.513-3.528-1.447-1.326-1.327-1.296-2.834-1.296-5.427 0-2.593-.03-4.1 1.296-5.427.935-.935 2.11-1.447 3.528-1.447 2.864 0 4.522 1.87 4.914 4.19h-2.05c-.332-1.477-1.327-2.351-2.834-2.351a2.75 2.75 0 0 0-1.99.844c-.663.724-.814 1.477-.814 4.19 0 2.714.15 3.498.814 4.191.482.513 1.206.814 1.99.814.874 0 1.658-.331 2.2-.934.483-.573.694-1.236.694-2.11v-.754h-2.864v-1.719h-.06Zm11.064-6.18L71.854 38.69h2.17l.935-2.713h5.306l.935 2.713h2.17l-4.914-13.476h-1.658Zm-1.236 9.014 2.11-5.97 2.05 5.97h-4.16Zm19.566 4.432v-9.014l-3.105 6.572h-1.507l-3.166-6.542v9.014H85.3V25.215h2.05l3.95 8.381 3.858-8.381h2.05V38.69h-2.08v-.03Zm5.548-13.446h2.05V38.69h-2.05V25.215Zm13.838 13.446-6.241-9.467v9.467h-2.05V25.215h1.869l6.241 9.466v-9.466h2.05V38.69h-1.869v-.03Zm13.446-1.417c-1.025 1.085-2.292 1.538-3.708 1.538-1.387 0-2.623-.513-3.528-1.447-1.326-1.327-1.296-2.834-1.296-5.427 0-2.593-.03-4.1 1.296-5.427.935-.935 2.111-1.447 3.528-1.447 2.864 0 4.522 1.87 4.914 4.19h-2.05c-.332-1.477-1.327-2.351-2.834-2.351a2.75 2.75 0 0 0-1.99.844c-.663.724-.814 1.477-.814 4.19 0 2.714.151 3.498.814 4.191.482.513 1.206.814 1.99.814.904 0 1.658-.331 2.201-.934.482-.573.693-1.236.693-2.11v-.754h-2.864v-1.749h4.914v2.05c-.03 1.779-.362 2.894-1.266 3.829Zm-66.598 4.974h8.622v1.84h-6.572v4.1h5.608v1.839h-5.608v5.698h-2.05V42.218Zm15.044-.09c-1.447 0-2.623.513-3.527 1.447-1.327 1.327-1.297 2.834-1.297 5.427 0 2.593-.03 4.1 1.297 5.427.934.934 2.11 1.447 3.527 1.447 1.447 0 2.623-.513 3.558-1.447 1.326-1.327 1.296-2.834 1.296-5.427 0-2.593.03-4.1-1.296-5.427-.905-.934-2.11-1.447-3.558-1.447Zm2.02 11.034a2.768 2.768 0 0 1-2.02.845c-.784 0-1.537-.332-2.02-.845-.663-.723-.784-1.477-.784-4.19 0-2.714.12-3.467.784-4.19a2.768 2.768 0 0 1 2.02-.845c.784 0 1.538.332 2.02.844.663.724.784 1.477.784 4.19 0 2.714-.12 3.468-.784 4.191ZM91.722 42.25h2.05v8.924c0 2.773-2.11 4.642-4.854 4.642s-4.824-1.869-4.824-4.642V42.25h2.05v8.833c0 1.81 1.085 2.925 2.774 2.925 1.688 0 2.803-1.116 2.803-2.925V42.25Zm13.446 0h2.05v13.476h-1.869l-6.241-9.497v9.467h-2.05V42.218h1.869l6.241 9.467V42.25Zm13.777 1.266c-.844-.844-2.08-1.266-3.497-1.266h-4.733v13.476h4.733c1.387 0 2.623-.422 3.497-1.266 1.448-1.447 1.357-3.618 1.357-5.578 0-1.96.091-3.919-1.357-5.366Zm-1.386 9.436c-.573.633-1.327.905-2.292.905h-2.472v-9.798h2.472c.965 0 1.719.27 2.292.904.693.784.723 2.05.723 3.89-.03 1.868-.03 3.346-.723 4.1Zm8.924-10.733-4.945 13.477h2.171l.934-2.713h5.307l.934 2.713h2.171l-4.944-13.477h-1.628Zm-1.237 9.045 2.111-5.97 2.05 5.97h-4.161Zm7.387-9.014h9.466v1.839h-3.708v11.637h-2.05V44.088h-3.708v-1.84Zm11.788-.03h2.05v13.476h-2.05V42.218Zm9.919-.09c-1.448 0-2.623.512-3.528 1.446-1.326 1.327-1.296 2.834-1.296 5.427 0 2.593-.03 4.1 1.296 5.427.935.934 2.111 1.447 3.528 1.447 1.417 0 2.622-.513 3.557-1.447 1.327-1.327 1.296-2.834 1.296-5.427 0-2.593.031-4.1-1.296-5.427-.904-.934-2.11-1.447-3.557-1.447Zm2.02 11.033a2.77 2.77 0 0 1-2.02.845c-.784 0-1.538-.332-2.02-.845-.664-.723-.784-1.477-.784-4.19 0-2.714.12-3.467.784-4.19.482-.513 1.206-.845 2.02-.845.783 0 1.537.332 2.02.844.663.724.783 1.477.783 4.19 0 2.714-.12 3.468-.783 4.191Zm13.958-10.913h2.05v13.476h-1.869l-6.241-9.467v9.467h-2.05V42.25h1.869l6.241 9.466V42.25Z"/>
  <mask id="a" width="22" height="11" x="15" y="45" maskUnits="userSpaceOnUse" style="mask-type:luminance">
    <path fill="#fff" d="M34.65 45.81c-4.853 4.855-12.722 4.855-17.576 0a1.02 1.02 0 0 0-1.477 0c-.392.393-.392 1.056 0 1.478a14.407 14.407 0 0 0 7.477 3.98 3.326 3.326 0 0 0-.392 1.537 3.178 3.178 0 0 0 3.196 3.196 3.178 3.178 0 0 0 3.195-3.196 3.22 3.22 0 0 0-.392-1.537 14.407 14.407 0 0 0 7.477-3.98 1.02 1.02 0 0 0 0-1.477 1.029 1.029 0 0 0-.723-.302c-.302 0-.573.09-.784.302Z"/>
  </mask>
  <g mask="url(#a)">
    <path fill="url(#b)" d="M31.214 65.255 10.592 53.377l9.95-17.215 20.59 11.909-9.918 17.184Z"/>
  </g>
  <mask id="c" width="15" height="13" x="18" y="33" maskUnits="userSpaceOnUse" style="mask-type:luminance">
    <path fill="#fff" d="M25.847 33.66h-.12c-.09 0-.151.03-.241.06-.03 0-.03 0-.06.03h-.03c-.031 0-.061.03-.061.03l-.03.03c-.03 0-.03.031-.06.031l-.03.03c-.03 0-.03.03-.061.03l-.03.03-.03.03-.06.06-.03.031c-.031.03-.031.06-.061.06l-5.879 9.768c-.302.483-.15 1.146.362 1.417.18.09.362.151.542.151.362 0 .694-.18.905-.512l5.005-8.291 5.004 8.29c.181.332.543.513.905.513.18 0 .361-.06.542-.15.483-.302.663-.935.362-1.418l-5.94-9.707c-.03-.03-.03-.06-.06-.06 0 0 0-.03-.03-.03 0-.03-.03-.03-.03-.061l-.03-.03-.03-.03-.03-.03-.03-.03c-.03 0-.03-.03-.06-.03 0 0-.03 0-.03-.031-.031 0-.031-.03-.061-.03 0 0-.03 0-.03-.03h-.03c-.121-.06-.242-.06-.332-.09h-.03c-.06-.03-.06-.03-.09-.03Z"/>
  </mask>
  <g mask="url(#c)">
    <path fill="url(#d)" d="m29.405 51.658-15.768-9.105 8.683-15.014 15.768 9.105-8.683 15.014Z"/>
  </g>
  <mask id="e" width="12" height="15" x="27" y="25" maskUnits="userSpaceOnUse" style="mask-type:luminance">
    <path fill="#fff" d="m37.304 25.372-9.768 5.88s-.03 0-.03.03c-.03 0-.03.03-.06.03l-.03.03-.031.03c-.03.03-.03.03-.06.03l-.03.03-.06.06-.03.03c-.031.03-.031.06-.061.06-.03.031-.03.061-.03.091s-.03.06-.03.06a.56.56 0 0 0-.06.212v.301c0 .06.03.15.06.211 0 .03.03.06.03.09s.03.06.03.091c.03.03.03.06.06.09l.03.03.06.061.03.03.03.03.03.03.031.03c.03 0 .03.03.06.03 0 0 .03 0 .03.03l9.769 5.88c.482.301 1.145.15 1.447-.362.09-.18.15-.362.15-.543 0-.361-.18-.693-.512-.904l-8.26-4.914 8.29-5.005c.332-.18.513-.543.513-.904 0-.181-.06-.362-.151-.543a1.06 1.06 0 0 0-.905-.513c-.18.03-.361.09-.542.181Z"/>
  </mask>
  <g mask="url(#e)">
    <path fill="url(#f)" d="m20.963 28.718 14.954-8.622 9.044 15.647-14.953 8.652-9.045-15.677Z"/>
  </g>
  <mask id="g" width="12" height="22" x="38" y="21" maskUnits="userSpaceOnUse" style="mask-type:luminance">
    <path fill="#fff" d="M39.173 21.91a1.02 1.02 0 0 0 0 1.477c4.854 4.854 4.854 12.723 0 17.577-.422.392-.422 1.055 0 1.477.392.422 1.055.422 1.477 0a14.381 14.381 0 0 0 3.98-7.507 3.16 3.16 0 0 0 1.598.422 3.178 3.178 0 0 0 3.195-3.196 3.178 3.178 0 0 0-3.195-3.195c-.573 0-1.116.15-1.598.422a14.381 14.381 0 0 0-3.98-7.507 1.029 1.029 0 0 0-.723-.302c-.272.03-.543.12-.754.332Z"/>
  </mask>
  <g mask="url(#g)">
    <path fill="url(#h)" d="m29.556 26.911 17.214-9.919 11.85 20.531-17.185 9.92L29.556 26.91Z"/>
  </g>
  <mask id="i" width="11" height="22" x="2" y="21" maskUnits="userSpaceOnUse" style="mask-type:luminance">
    <path fill="#fff" d="M10.834 21.898a14.516 14.516 0 0 0-4.01 7.537 3.008 3.008 0 0 0-1.628-.452A3.178 3.178 0 0 0 2 32.179a3.178 3.178 0 0 0 3.196 3.195c.603 0 1.145-.18 1.628-.452a14.416 14.416 0 0 0 4.01 7.537 1.02 1.02 0 0 0 1.477 0 1.02 1.02 0 0 0 0-1.477c-4.854-4.854-4.854-12.723 0-17.576a1.02 1.02 0 0 0 0-1.478 1.029 1.029 0 0 0-.724-.301.91.91 0 0 0-.753.271Z"/>
  </mask>
  <g mask="url(#i)">
    <path fill="url(#j)" d="M12.703 21.598H2v21.254h10.703V21.598Z"/>
  </g>
  <mask id="k" width="13" height="15" x="12" y="25" maskUnits="userSpaceOnUse" style="mask-type:luminance">
    <path fill="#fff" d="M12.733 25.728c-.09.18-.15.362-.15.542 0 .362.18.694.512.905l8.29 5.005-8.29 5.004a1.06 1.06 0 0 0-.513.905c0 .18.06.361.15.542.302.483.935.664 1.418.362l9.768-5.879c.03 0 .06-.03.06-.06l.03-.03c.03 0 .03-.03.06-.03l.03-.03.03-.03c.031-.03.031-.03.031-.061l.03-.03c.03-.03.03-.06.06-.06v-.03c.03-.03.03-.06.03-.091v-.03c0-.03.03-.03.03-.06.03-.09.061-.212.061-.302v-.18c0-.091-.03-.212-.06-.302 0-.03-.03-.03-.03-.06v-.03c0-.03-.03-.061-.03-.091v-.03c0-.03-.03-.06-.06-.06 0 0 0-.03-.03-.03 0-.031-.031-.031-.031-.061l-.03-.03-.03-.03c-.03 0-.03-.03-.06-.03l-.03-.03c-.031-.03-.031-.03-.061-.03h-.03l-9.768-5.88a1.234 1.234 0 0 0-.543-.15c-.302-.03-.633.15-.844.482Z"/>
  </mask>
  <g mask="url(#k)">
    <path fill="url(#l)" d="M24.43 25.215H12.582v14.019H24.43v-14.02Z"/>
  </g>
  <mask id="m" width="22" height="11" x="15" y="8" maskUnits="userSpaceOnUse" style="mask-type:luminance">
    <path fill="#fff" d="M22.682 11.43c0 .573.15 1.085.422 1.568a14.407 14.407 0 0 0-7.477 3.98c-.392.391-.392 1.055 0 1.477a1.075 1.075 0 0 0 1.477 0c4.854-4.854 12.723-4.854 17.577 0 .392.392 1.055.392 1.477 0a1.02 1.02 0 0 0 0-1.478 14.407 14.407 0 0 0-7.477-3.98 3.05 3.05 0 0 0 .422-1.567 3.178 3.178 0 0 0-3.195-3.196c-1.81 0-3.226 1.417-3.226 3.196Z"/>
  </mask>
  <g mask="url(#m)">
    <path fill="url(#n)" d="M9.869 13.543 25.878-2.436l15.978 15.98-15.979 15.978L9.87 13.543Z"/>
  </g>
  <mask id="o" width="15" height="13" x="18" y="18" maskUnits="userSpaceOnUse" style="mask-type:luminance">
    <path fill="#fff" d="m30.882 19.25-5.005 8.292-5.004-8.291c-.181-.332-.543-.513-.905-.513-.18 0-.361.06-.542.151-.483.302-.663.935-.362 1.417l5.879 9.768c.03.03.03.06.06.09l.03.03.06.061.03.03c0 .03.031.03.031.03.03 0 .03.03.03.03l.03.03c.03 0 .03.03.06.03 0 0 .03 0 .03.03.03 0 .03.031.061.031 0 0 .03 0 .03.03 0 0 .03 0 .03.03.09.03.211.06.332.09h.18c.121 0 .212-.03.332-.06 0 0 .03 0 .03-.03 0 0 .03 0 .03-.03.03 0 .03-.03.061-.03 0 0 .03 0 .03-.03.03 0 .03-.03.06-.03l.03-.03.03-.03.03-.03.031-.03.06-.061.03-.03c.03-.03.03-.06.06-.06l5.88-9.769c.301-.482.15-1.145-.362-1.417a1.23 1.23 0 0 0-.543-.15c-.331-.06-.663.12-.844.452Z"/>
  </mask>
  <g mask="url(#o)">
    <path fill="url(#p)" d="m12.853 24.677 13.025-13.025L38.87 24.677 25.877 37.7 12.854 24.677Z"/>
  </g>
  <defs>
    <linearGradient id="b" x1="32.106" x2="16.009" y1="54.309" y2="45.015" gradientUnits="userSpaceOnUse">
      <stop stop-color="#00BEE7"/>
      <stop offset=".216" stop-color="#01BBE5"/>
      <stop offset=".378" stop-color="#03B1DD"/>
      <stop offset=".523" stop-color="#06A1D0"/>
      <stop offset=".658" stop-color="#0A8ABE"/>
      <stop offset=".786" stop-color="#106DA6"/>
      <stop offset=".907" stop-color="#174989"/>
      <stop offset="1" stop-color="#1E286F"/>
    </linearGradient>
    <linearGradient id="d" x1="33.316" x2="22.669" y1="43.897" y2="37.75" gradientUnits="userSpaceOnUse">
      <stop stop-color="#00BEE7"/>
      <stop offset=".216" stop-color="#01BBE5"/>
      <stop offset=".378" stop-color="#03B1DD"/>
      <stop offset=".523" stop-color="#06A1D0"/>
      <stop offset=".658" stop-color="#0A8ABE"/>
      <stop offset=".786" stop-color="#106DA6"/>
      <stop offset=".907" stop-color="#174989"/>
      <stop offset="1" stop-color="#1E286F"/>
    </linearGradient>
    <linearGradient id="f" x1="28.434" x2="40.124" y1="34.846" y2="28.096" gradientUnits="userSpaceOnUse">
      <stop stop-color="#DA1C5C"/>
      <stop offset=".218" stop-color="#D11C54"/>
      <stop offset=".573" stop-color="#B91B3E"/>
      <stop offset="1" stop-color="#931A1D"/>
    </linearGradient>
    <linearGradient id="h" x1="35.954" x2="48.484" y1="36.906" y2="29.672" gradientUnits="userSpaceOnUse">
      <stop stop-color="#DA1C5C"/>
      <stop offset=".218" stop-color="#D11C54"/>
      <stop offset=".573" stop-color="#B91B3E"/>
      <stop offset="1" stop-color="#931A1D"/>
    </linearGradient>
    <linearGradient id="j" x1="7.35" x2="7.35" y1="42.73" y2="21.588" gradientUnits="userSpaceOnUse">
      <stop stop-color="#FFF200"/>
      <stop offset="1" stop-color="#FBAA19"/>
    </linearGradient>
    <linearGradient id="l" x1="18.519" x2="18.519" y1="39.094" y2="25.22" gradientUnits="userSpaceOnUse">
      <stop stop-color="#FFF200"/>
      <stop offset="1" stop-color="#FBAA19"/>
    </linearGradient>
    <linearGradient id="n" x1="18.287" x2="29.289" y1="21.137" y2="10.135" gradientUnits="userSpaceOnUse">
      <stop stop-color="#BDD631"/>
      <stop offset=".2" stop-color="#BDD631"/>
      <stop offset=".554" stop-color="#8CB632"/>
      <stop offset=".843" stop-color="#6BA133"/>
      <stop offset="1" stop-color="#5E9933"/>
    </linearGradient>
    <linearGradient id="p" x1="22.68" x2="31.989" y1="27.852" y2="18.543" gradientUnits="userSpaceOnUse">
      <stop stop-color="#BDD631"/>
      <stop offset=".2" stop-color="#BDD631"/>
      <stop offset=".554" stop-color="#8CB632"/>
      <stop offset=".843" stop-color="#6BA133"/>
      <stop offset="1" stop-color="#5E9933"/>
    </linearGradient>
  </defs>
</svg>
